<?xml version="1.0" encoding="UTF-8"?>
<svg version="1.1" xmlns="http://www.w3.org/2000/svg" width="50" height="50">
<path d="M0 0 C2.5390625 0.59765625 2.5390625 0.59765625 6 2 C6.77827148 2.28472168 7.55654297 2.56944336 8.35839844 2.86279297 C14.93880017 5.41223567 21.58766705 8.31567419 26 14 C28.5298887 22.43339434 27.85186662 32.44487449 26 41 C25.34 41.66 24.68 42.32 24 43 C22.125 43 22.125 43 20 42 C17.75 38.9375 17.75 38.9375 16 36 C15.67 38.64 15.34 41.28 15 44 C13.05859375 45.30859375 13.05859375 45.30859375 10 46 C6.79750071 44.73945007 3.96665055 42.89507827 1.0625 41.0625 C-0.49953543 40.07966065 -2.07099599 39.11161152 -3.65234375 38.16015625 C-4.34320068 37.72324463 -5.03405762 37.28633301 -5.74584961 36.83618164 C-8.55524822 35.58153285 -8.55524822 35.58153285 -14 37 C-14 27.76 -14 18.52 -14 9 C-7.25 7.875 -7.25 7.875 -4 10 C-3.896875 8.72125 -3.79375 7.4425 -3.6875 6.125 C-3.51171875 3.9453125 -3.51171875 3.9453125 -3 2 C-2.01 1.34 -1.02 0.68 0 0 Z M2 4 C4.17424117 6.50037734 5.73045798 7.43628586 9 8 C6.82575883 5.49962266 5.26954202 4.56371414 2 4 Z M-1 5 C-1 7.97 -1 10.94 -1 14 C1.28874173 15.33858524 3.58069656 16.67101014 5.875 18 C6.52597656 18.3815625 7.17695313 18.763125 7.84765625 19.15625 C11.20350201 21.27551156 11.20350201 21.27551156 15 22 C14.93039063 22.66386719 14.86078125 23.32773437 14.7890625 24.01171875 C14.73492187 24.89472656 14.68078125 25.77773438 14.625 26.6875 C14.55539063 27.55761719 14.48578125 28.42773438 14.4140625 29.32421875 C14.92773124 32.97931447 14.92773124 32.97931447 21 37 C21 30.4 21 23.8 21 17 C17.52229768 14.99741563 14.04293733 12.99782053 10.5625 11 C9.07266602 10.14148438 9.07266602 10.14148438 7.55273438 9.265625 C6.60849609 8.72421875 5.66425781 8.1828125 4.69140625 7.625 C3.81685791 7.12226563 2.94230957 6.61953125 2.04125977 6.1015625 C0.23991451 4.92084845 0.23991451 4.92084845 -1 5 Z M9 8 C11.17424117 10.50037734 12.73045798 11.43628586 16 12 C13.82575883 9.49962266 12.26954202 8.56371414 9 8 Z M-11 10 C-10.67 10.66 -10.34 11.32 -10 12 C-9.34 11.67 -8.68 11.34 -8 11 C-8.99 10.67 -9.98 10.34 -11 10 Z M-8 12 C-5.82575883 14.50037734 -4.26954202 15.43628586 -1 16 C-3.17424117 13.49962266 -4.73045798 12.56371414 -8 12 Z M16 12 C16.99 12.99 17.98 13.98 19 15 C19.66 14.67 20.32 14.34 21 14 C18.525 13.01 18.525 13.01 16 12 Z M-12 13 C-12 19.6 -12 26.2 -12 33 C-10.02 33.33 -8.04 33.66 -6 34 C-4.06542969 34.84790039 -4.06542969 34.84790039 -2.421875 35.84765625 C-1.81859375 36.20537109 -1.2153125 36.56308594 -0.59375 36.93164062 C0.0146875 37.30482422 0.623125 37.67800781 1.25 38.0625 C5.35257963 40.87685278 5.35257963 40.87685278 10 42 C11.00048423 36.3632849 12.02075368 30.50416011 10 25 C4.4277337 18.84343394 -4.48251073 16.00699571 -12 13 Z M-1 16 C-0.01 16.99 0.98 17.98 2 19 C2.66 18.67 3.32 18.34 4 18 C1.525 17.01 1.525 17.01 -1 16 Z M23 17 C23 24.59 23 32.18 23 40 C23.33 40 23.66 40 24 40 C24 32.41 24 24.82 24 17 C23.67 17 23.34 17 23 17 Z M4 19 C6.17424117 21.50037734 7.73045798 22.43628586 11 23 C8.82575883 20.49962266 7.26954202 19.56371414 4 19 Z M12 25 C12 30.61 12 36.22 12 42 C12.33 42 12.66 42 13 42 C13 36.39 13 30.78 13 25 C12.67 25 12.34 25 12 25 Z " fill="#218CE7" transform="translate(19,2)"/>
</svg>
